<?xml version="1.0" encoding="utf-8"?>
<!-- Generator: Adobe Illustrator 23.0.2, SVG Export Plug-In . SVG Version: 6.00 Build 0)  -->
<svg version="1.1" id="Layer_1" xmlns="http://www.w3.org/2000/svg" xmlns:xlink="http://www.w3.org/1999/xlink" width="24" height="24" x="0px" y="0px"
	 viewBox="0 0 24 24" style="enable-background:new 0 0 24 24;" xml:space="preserve">
<style type="text/css">
	.st0{fill:none;}
	.st1{fill:#9D9D9D;}
	.st2{fill:none;stroke:#000000;stroke-width:0.652;stroke-miterlimit:10;}
</style>
<path class="st0" d="M0,0h24v24H0V0z"/>
<path class="st1" d="M6.1,12c0-3.2,2.6-5.9,5.9-5.9s5.9,2.6,5.9,5.9s-2.6,5.9-5.9,5.9S6.1,15.2,6.1,12z M12,15.5
	c1.9,0,3.5-1.6,3.5-3.5S13.9,8.5,12,8.5S8.5,10.1,8.5,12S10.1,15.5,12,15.5z"/>
<path class="st2" d="M18,5.4"/>
<path class="st2" d="M18,0.6"/>
<g>
	<polygon points="15.5,7.8 13.6,9.7 12,8 16.7,3.3 21.4,8 19.7,9.7 17.9,7.8 17.9,12 15.5,12 	"/>
</g>
<g>
	<path class="st0" d="M12,17.9c-0.4,0-0.8,0-1.2-0.1v4.3h2.3v-4.3C12.8,17.8,12.4,17.9,12,17.9z"/>
	<path class="st0" d="M13.2,15.3h-2.3c0.4,0.1,0.8,0.2,1.2,0.2S12.8,15.4,13.2,15.3z"/>
</g>
<path d="M13.2,16.5v-1.1h0c-0.4,0.1-0.8,0.2-1.2,0.2s-0.8-0.1-1.2-0.2h0v2.4c0,0,0,0,0,0v4.3h2.3L13.2,16.5L13.2,16.5z"/>
<path d="M15.5,12c0,1.9-1.6,3.5-3.5,3.5c0,0-0.1,0-0.1,0v2.3c0,0,0.1,0,0.1,0c3.2,0,5.9-2.6,5.9-5.9c0-0.3,0-0.6-0.1-0.8h-2.2
	C15.7,11.4,15.5,11.7,15.5,12z"/>
</svg>
