<?xml version="1.0" encoding="utf-8"?>
<!-- Generator: Adobe Illustrator 23.0.2, SVG Export Plug-In . SVG Version: 6.00 Build 0)  -->
<svg version="1.1" id="Layer_1" xmlns="http://www.w3.org/2000/svg" xmlns:xlink="http://www.w3.org/1999/xlink" width="24" height="24" x="0px" y="0px"
	 viewBox="0 0 24 24" style="enable-background:new 0 0 24 24;" xml:space="preserve">
<style type="text/css">
	.st0{fill:none;}
	.st1{fill:#9D9D9D;}
	.st2{fill:none;stroke:#000000;stroke-width:0.652;stroke-miterlimit:10;}
</style>
<path class="st0" d="M0,3.6h24v24H0V3.6z"/>
<path class="st1" d="M6.1,15.6c0-3.2,2.6-5.9,5.9-5.9s5.9,2.6,5.9,5.9s-2.6,5.9-5.9,5.9S6.1,18.9,6.1,15.6z M12,19.1
	c1.9,0,3.5-1.6,3.5-3.5s-1.6-3.5-3.5-3.5s-3.5,1.6-3.5,3.5S10.1,19.1,12,19.1z"/>
<path class="st2" d="M18,9.1"/>
<path class="st2" d="M18,4.2"/>
<g>
	<polygon points="10.8,7.3 9,9.1 7.3,7.5 12,2.8 16.7,7.5 15.1,9.1 13.2,7.3 13.2,11.5 10.8,11.5 	"/>
</g>
<g>
	<path class="st0" d="M12,21.5c-0.4,0-0.8,0-1.2-0.1v4.3h2.3v-4.3C12.8,21.5,12.4,21.5,12,21.5z"/>
	<path class="st0" d="M13.2,18.9h-2.3c0.4,0.1,0.8,0.2,1.2,0.2S12.8,19.1,13.2,18.9z"/>
</g>
<path d="M10.8,11.1v1.1h0c0.4-0.1,0.8-0.2,1.2-0.2s0.8,0.1,1.2,0.2h0V9.9c0,0,0,0,0,0V5.5h-2.3L10.8,11.1L10.8,11.1z"/>
<path d="M17.9,15.6c0-3.2-2.6-5.9-5.9-5.9c-0.3,0-0.6,0-0.8,0.1V12c0.3-0.1,0.5,0.1,0.8,0.1c1.9,0,3.5,1.6,3.5,3.5"/>
</svg>
